# AST/ASF file generated using VICON BodyLanguage
# -----------------------------------------------
:version 1.10
:name VICON
:units
  mass 1.0
  length 0.45
  angle deg
:documentation
   .ast/.asf automatically generated from VICON data using
   VICON BodyBuilder and BodyLanguage model FoxedUp or BRILLIANT.MOD
:root
   order TX TY TZ RX RY RZ
   axis XYZ
   position 0 0 0  
   orientation 0 0 0 
:bonedata
  begin
     id 1 
     name lhipjoint
     direction 0.645893 -0.654526 0.392961 
     length 2.38111 
     axis 0 0 0  XYZ
  end
  begin
     id 2 
     name lfemur
     direction 0.34202 -0.939693 0  
     length 6.6822  
     axis 0 0 20  XYZ
    dof rx ry rz
    limits (-160.0 20.0)
           (-70.0 70.0)
           (-60.0 70.0)
  end
  begin
     id 3 
     name ltibia
     direction 0.34202 -0.939693 0   
     length 6.93904   
     axis 0 0 20   XYZ
    dof rx
    limits (-10.0 170.0)
  end
  begin
     id 4 
     name lfoot
     direction 0.0694967 -0.190941 0.979138   
     length 2.13616   
     axis -90 7.62852e-016 20   XYZ
    dof rx rz
    limits (-45.0 90.0)
           (-70.0 20.0)
  end
  begin
     id 5 
     name ltoes
     direction 1.535e-011 -4.2202e-011 1   
     length 1.07536   
     axis -90 7.62852e-016 20   XYZ
    dof rx
    limits (-90.0 20.0)
  end
  begin
     id 6 
     name rhipjoint
     direction -0.700219 -0.612087 0.367481   
     length 2.54621  
     axis 0 0 0  XYZ 
  end
  begin
     id 7 
     name rfemur
     direction -0.34202 -0.939693 0   
     length 6.55353   
     axis 0 0 -20   XYZ
    dof rx ry rz
    limits (-160.0 20.0)
           (-70.0 70.0)
           (-70.0 60.0)
  end
  begin
     id 8 
     name rtibia
     direction -0.34202 -0.939693 0   
     length 6.8736   
     axis 0 0 -20   XYZ
    dof rx
    limits (-10.0 170.0)
 end
 begin
     id 9 
     name rfoot
     direction -0.0679995 -0.186827 0.980037   
     length 2.1218  
     axis -90 -7.62852e-016 -20   XYZ
    dof rx rz
    limits (-45.0 90.0)
           (-20.0 70.0)
  end
  begin
     id 10 
     name rtoes
     direction -1.53589e-011 -4.21772e-011 1   
     length 1.06864   
     axis -90 -7.62852e-016 -20   XYZ
    dof rx
    limits (-90.0 20.0)
  end
  begin
     id 11 
     name lowerback
     direction -0.0416607 0.996347 -0.0745409   
     length 2.12205   
     axis 0 0 0   XYZ
    dof rx ry rz
    limits (-20.0 45.0)
           (-30.0 30.0)
           (-30.0 30.0)
  end
  begin
     id 12 
     name upperback
     direction -0.000153993 0.999276 -0.0380568   
     length 2.12759   
     axis 0 0 0   XYZ
    dof rx ry rz
    limits (-20.0 45.0)
           (-30.0 30.0)
           (-30.0 30.0)
  end
  begin
     id 13 
     name thorax
     direction 0.0187671 0.999821 -0.00241421   
     length 2.13704   
     axis 0 0 0   XYZ
    dof rx ry rz
    limits (-20.0 45.0)
           (-30.0 30.0)
           (-30.0 30.0)
  end
  begin
     id 14 
     name lowerneck
     direction 0.0268157 0.964865 0.261374   
     length 1.65253   
     axis 0 0 0   XYZ
    dof rx ry rz
    limits (-20.0 45.0)
           (-30.0 30.0)
           (-30.0 30.0)
  end
  begin
     id 15 
     name upperneck
     direction 0.00263774 0.939908 -0.341418   
     length 1.72375   
     axis 0 0 0   XYZ
    dof rx ry rz
    limits (-20.0 45.0)
           (-30.0 30.0)
           (-30.0 30.0)
  end
  begin
     id 16
     name head
     direction -0.00526001 0.989001 -0.147818  
     length 1.74878  
     axis 0 0 0   XYZ
    dof rx ry rz
    limits (-20.0 45.0)
           (-30.0 30.0)
           (-30.0 30.0)
  end
  begin
     id 17 
     name lclavicle
     direction 0.881214 0.461162 -0.103884  
     length 3.25108  
     axis 0 0 0   XYZ
    dof ry rz
    limits (-20.0 10.0)
           (0.0 20.0)
  end
  begin
     id 18 
     name lhumerus
     direction 1 -4.4899e-011 3.38092e-027   
     length 4.87408   
     axis 180 -30 -90   XYZ
    dof rx ry rz
    limits (-60.0 90.0)
           (-90.0 90.0)
           (-90.0 90.0)
  end
  begin
     id 19
     name lradius
     direction 1 -4.48931e-011 9.96288e-027   
     length 2.76729   
     axis 180 -30 -90   XYZ
    dof rx
    limits (-10.0 170.0)
  end
  begin
     id 20
     name lwrist
     direction 1 -4.4896e-011 1.50617e-026   
     length 1.38364   
     axis -9.31234e-015 90 90   XYZ
    dof ry
    limits (-180.0 0.0)
 end
  begin
     id 21 
     name lhand
     direction 1 -4.49038e-011 3.01286e-026   
     length 0.98922   
     axis -1.92217e-014 90 90   XYZ
    dof rx rz
    limits (-90.0 90.0)
           (-45.0 45.0)
  end
  begin
     id 22 
     name lfingers
     direction 1 -4.49051e-011 6.02588e-026   
     length 0.797535   
     axis -3.84436e-014 90 90   XYZ
    dof rx
    limits (0.0 90.0)
  end
  begin
     id 23
     name lthumb
     direction 0.707107 -6.34901e-011 0.707107   
     length 1.14511   
     axis -90 45 2.19363e-014   XYZ
    dof rx rz
    limits (-45.0 45.0)
           (-45.0 45.0)
  end
  begin
     id 24 
     name rclavicle
     direction -0.893894 0.441652 -0.0767889   
     length 3.29361  
     axis 0 0 0   XYZ 
    dof ry rz
    limits (-10.0 20.0)
           (-20.0 0.0)
  end
  begin
     id 25 
     name rhumerus
     direction -1 -4.48945e-011 8.0491e-028  
     length 4.71404   
     axis 180 30 90   XYZ
    dof rx ry rz
    limits (-90.0 60.0)
           (-90.0 90.0)
           (-90.0 90.0)
  end
  begin
     id 26 
     name rradius
     direction -1 -4.48986e-011 9.27795e-027   
     length 2.83468   
     axis 180 30 90   XYZ
    dof rx
    limits (-10.0 170.0)
  end
  begin
     id 27 
     name rwrist
     direction -1 -4.49029e-011 1.5064e-026   
     length 1.41734   
     axis -9.31234e-015 -90 -90   XYZ
    dof ry
    limits (-180.0 0.0)
  end
  begin
     id 28
     name rhand
     direction -1 -4.48857e-011 3.01165e-026   
     length 0.868195   
     axis -1.92217e-014 -90 -90   XYZ
    dof rx rz
    limits (-90.0 90.0)
           (-45.0 45.0)
  end
  begin
     id 29
     name rfingers
     direction -1 -4.49048e-011 6.02585e-026   
     length 0.699961   
     axis -3.84436e-014 -90 -90   XYZ
    dof rx
    limits (0.0 90.0)
  end
  begin
     id 30
     name rthumb
     direction -0.707107 -6.34854e-011 0.707107   
     length 1.00501   
     axis -90 -45 -2.19363e-014   XYZ
    dof rx rz
    limits (-45.0 45.0)
           (-45.0 45.0)
  end
:hierarchy
  begin
    root lhipjoint rhipjoint lowerback
    lhipjoint lfemur
    lfemur ltibia
    ltibia lfoot
    lfoot ltoes
    rhipjoint rfemur
    rfemur rtibia
    rtibia rfoot
    rfoot rtoes
    lowerback upperback
    upperback thorax
    thorax lowerneck lclavicle rclavicle
    lowerneck upperneck
    upperneck head
    lclavicle lhumerus
    lhumerus lradius
    lradius lwrist
    lwrist lhand lthumb
    lhand lfingers
    rclavicle rhumerus
    rhumerus rradius
    rradius rwrist
    rwrist rhand rthumb
    rhand rfingers
  end

#!OML:ASF H:\ManfredObstacles\Project 1\Capture day 2\Session 1\male.ASF
:FULLY-SPECIFIED
:DEGREES
145
root 1.60475 12.7845 16.1193 -143.587 5.44604 179.234
lowerback 21.7362 0.322654 -7.19196
upperback 7.30232 0.150813 -1.03289
thorax -4.08478 0.545523 2.90901
lowerneck -32.9686 1.53646 3.4937
upperneck 16.1719 0.694808 -0.329677
head 10.4799 0.548303 -0.542068
rclavicle -2.50469e-014 -6.95746e-015
rhumerus -111.968 -8.22079 78.941
rradius 18.6463
rwrist 157.456
rhand -7.29094 -8.10826
rfingers 7.12502
rthumb 18.591 -37.2399
lclavicle -2.50469e-014 -6.95746e-015
lhumerus -77.7722 7.11345 35.3533
lradius 15.2744
lwrist -69.3629
lhand -10.0191 3.09737
lfingers 7.12502
lthumb 15.9653 32.4594
rfemur -81.5997 5.01753 22.9755
rtibia 87.4563
rfoot -31.8435 -21.8949
rtoes -18.5769
lfemur -78.9008 0.860684 -26.8981
ltibia 89.3651
lfoot -13.9162 37.4061
ltoes -15.3747
146
root 1.61067 12.6982 16.031 -143.584 5.33109 179.097
lowerback 22.1278 0.330099 -7.216
upperback 7.25332 0.127515 -1.03279
thorax -4.33389 0.546831 2.92587
lowerneck -32.8049 1.46025 3.47106
upperneck 15.8811 0.604548 -0.268426
head 10.344 0.514108 -0.531767
rclavicle 1.07344e-014 2.92213e-014
rhumerus -114.096 -8.81686 78.6476
rradius 18.5664
rwrist 157.256
rhand -7.5887 -8.24937
rfingers 7.12502
rthumb 18.3046 -37.4081
lclavicle 1.07344e-014 2.92213e-014
lhumerus -76.5768 8.53343 34.952
lradius 15.171
lwrist -70.0473
lhand -10.6674 3.49931
lfingers 7.12502
lthumb 15.3408 32.9103
rfemur -81.829 4.95429 22.9113
rtibia 88.7422
rfoot -32.4201 -22.2144
rtoes -19.3188
lfemur -78.9299 0.762202 -27.022
ltibia 90.378
lfoot -14.2627 37.9063
ltoes -15.8812
147
root 1.61614 12.6217 15.9356 -143.615 5.23234 178.998
lowerback 22.4771 0.346522 -7.2115
upperback 7.20943 0.124752 -1.03027
thorax -4.55851 0.556937 2.92436
lowerneck -32.718 1.38492 3.46466
upperneck 15.6758 0.506033 -0.219507
head 10.2524 0.475729 -0.529786
rclavicle 5.96354e-015 5.76476e-015
rhumerus -116.462 -9.51489 78.4257
rradius 18.5004
rwrist 157.188
rhand -7.92135 -8.40344
rfingers 7.12502
rthumb 17.9845 -37.5919
lclavicle 5.96354e-015 5.76476e-015
lhumerus -75.2476 10.255 34.3747
lradius 15.0268
lwrist -71.0777
lhand -11.3797 3.91542
lfingers 7.12502
lthumb 14.6547 33.3776
rfemur -81.8848 4.9603 22.8377
rtibia 89.8759
rfoot -32.9606 -22.5887
rtoes -20.115
lfemur -78.8268 0.673213 -27.1015
ltibia 91.2983
lfoot -14.5239 38.4021
ltoes -16.345
148
root 1.62119 12.5551 15.8341 -143.649 5.1552 178.935
lowerback 22.7597 0.37406 -7.20122
upperback 7.15573 0.137945 -1.01802
thorax -4.76187 0.572052 2.92635
lowerneck -32.6551 1.32604 3.51516
upperneck 15.4813 0.415795 -0.221682
head 10.1691 0.437937 -0.553841
rclavicle 6.36111e-015 -4.77083e-015
rhumerus -119.047 -10.3201 78.3188
rradius 18.4331
rwrist 157.315
rhand -8.35287 -8.53418
rfingers 7.12502
rthumb 17.5693 -37.7603
lclavicle 6.36111e-015 -4.77083e-015
lhumerus -73.8228 12.3309 33.6248
lradius 14.836
lwrist -72.4949
lhand -12.1268 4.3642
lfingers 7.12502
lthumb 13.9348 33.8773
rfemur -81.8157 5.0409 22.7544
rtibia 90.8549
rfoot -33.4595 -22.9937
rtoes -20.9031
lfemur -78.6434 0.588932 -27.1407
ltibia 92.1286
lfoot -14.6695 38.8789
ltoes -16.719
149
root 1.62536 12.4992 15.7268 -143.675 5.104 178.905
lowerback 22.9697 0.411546 -7.19154
upperback 7.0834 0.162156 -0.994399
thorax -4.95045 0.589306 2.93841
lowerneck -32.6494 1.26177 3.54949
upperneck 15.3617 0.317009 -0.207255
head 10.1223 0.397607 -0.570639
rclavicle -1.55052e-014 7.95139e-016
rhumerus -121.833 -11.2642 78.295
rradius 18.3537
rwrist 157.679
rhand -8.85963 -8.66529
rfingers 7.12502
rthumb 17.0816 -37.9344
lclavicle -1.55052e-014 7.95139e-016
lhumerus -72.3475 14.7866 32.7556
lradius 14.6063
lwrist -74.1212
lhand -12.8626 4.84722
lfingers 7.12502
lthumb 13.2257 34.4077
rfemur -81.6305 5.185 22.6663
rtibia 91.6753
rfoot -33.9 -23.4297
rtoes -21.6814
lfemur -78.3865 0.50059 -27.1402
ltibia 92.8609
lfoot -14.6734 39.3365
ltoes -17.0326
150
root 1.62849 12.4555 15.6132 -143.712 5.08075 178.899
lowerback 23.1068 0.454352 -7.18662
upperback 7.00878 0.194792 -0.963902
thorax -5.10563 0.607917 2.9588
lowerneck -32.6911 1.18563 3.53644
upperneck 15.319 0.209239 -0.153334
head 10.1109 0.355583 -0.56716
rclavicle -5.56597e-015 2.38542e-015
rhumerus -124.806 -12.3987 78.2862
rradius 18.2257
rwrist 158.182
rhand -9.43287 -8.80352
rfingers 7.12502
rthumb 16.5297 -38.1195
lclavicle -5.56597e-015 2.38542e-015
lhumerus -70.7295 17.4436 32.2569
lradius 14.3755
lwrist -75.5163
lhand -13.5641 5.43875
lfingers 7.12502
lthumb 12.5494 35.0419
rfemur -81.3052 5.37679 22.5726
rtibia 92.3297
rfoot -34.2989 -23.8704
rtoes -22.4013
lfemur -78.017 0.39869 -27.1025
ltibia 93.4765
lfoot -14.6503 39.7521
ltoes -17.2529
151
root 1.63059 12.4248 15.4935 -143.756 5.08142 178.92
lowerback 23.1685 0.49618 -7.17313
upperback 6.92625 0.22903 -0.934902
thorax -5.23206 0.624579 2.97266
lowerneck -32.8035 1.11268 3.5206
upperneck 15.3617 0.0987294 -0.0887527
head 10.1421 0.314068 -0.559901
rclavicle 1.86858e-014 4.03533e-014
rhumerus -127.891 -13.8199 78.1323
rradius 17.9918
rwrist 158.635
rhand -10.0488 -8.95948
rfingers 7.12502
rthumb 15.9367 -38.3238
lclavicle 1.86858e-014 4.03533e-014
lhumerus -68.9293 20.2464 32.2019
lradius 14.1666
lwrist -76.497
lhand -14.2206 6.12071
lfingers 7.12502
lthumb 11.9164 35.7616
rfemur -80.8467 5.6085 22.4852
rtibia 92.8147
rfoot -34.614 -24.3451
rtoes -23.1086
lfemur -77.5307 0.2728 -27.0179
ltibia 93.9567
lfoot -14.6839 40.1165
ltoes -17.3689
152
root 1.63175 12.4078 15.3681 -143.816 5.10306 178.956
lowerback 23.16 0.537018 -7.15095
upperback 6.84098 0.266067 -0.91436
thorax -5.32662 0.640384 2.97206
lowerneck -32.9107 1.04155 3.5133
upperneck 15.4252 -0.0157204 -0.0175898
head 10.1802 0.272254 -0.552406
rclavicle 3.57812e-015 -3.97569e-015
rhumerus -130.998 -15.617 77.706
rradius 17.5285
rwrist 158.477
rhand -10.6455 -8.74281
rfingers 7.12502
rthumb 15.362 -38.1521
lclavicle 3.57812e-015 -3.97569e-015
lhumerus -66.8495 23.1177 32.6933
lradius 13.9843
lwrist -77.0803
lhand -14.8844 6.89373
lfingers 7.12502
lthumb 11.2763 36.5706
rfemur -80.2463 5.86064 22.4026
rtibia 93.1287
rfoot -34.8449 -24.8297
rtoes -23.7996
lfemur -76.8986 0.11315 -26.8965
ltibia 94.2702
lfoot -14.7642 40.4491
ltoes -17.3983
153
root 1.63215 12.4058 15.2373 -143.91 5.13733 178.998
lowerback 23.1044 0.57157 -7.11974
upperback 6.75007 0.297531 -0.902083
thorax -5.40316 0.652031 2.95914
lowerneck -33.0269 0.963041 3.49118
upperneck 15.5343 -0.142325 0.0790292
head 10.2367 0.227584 -0.535578
rclavicle -7.95139e-016 -3.18055e-015
rhumerus -133.777 -18.4413 76.2394
rradius 16.5241
rwrist 155.939
rhand -10.7497 -8.07377
rfingers 7.12502
rthumb 15.2616 -37.4908
lclavicle -7.95139e-016 -3.18055e-015
lhumerus -64.4264 25.9635 33.7963
lradius 13.8517
lwrist -77.2206
lhand -15.5674 7.7854
lfingers 7.12502
lthumb 10.6175 37.4972
rfemur -79.4842 6.11668 22.3276
rtibia 93.2698
rfoot -34.9896 -25.3216
rtoes -24.4692
lfemur -76.0889 -0.0887002 -26.7447
ltibia 94.3862
lfoot -14.8556 40.7669
ltoes -17.3803
154
root 1.63182 12.419 15.1016 -144.041 5.18146 179.045
lowerback 23.0054 0.601421 -7.06808
upperback 6.65506 0.328107 -0.905064
thorax -5.46235 0.662072 2.91852
lowerneck -33.1588 0.886781 3.49273
upperneck 15.6781 -0.278599 0.174011
head 10.3085 0.180283 -0.524916
rclavicle 5.1684e-015 1.63003e-014
rhumerus -135.461 -23.6526 72.349
rradius 14.7475
rwrist 148.763
rhand -10.2456 -6.86108
rfingers 7.12502
rthumb 15.7471 -36.2405
lclavicle 5.1684e-015 1.63003e-014
lhumerus -61.5318 28.6432 35.6632
lradius 13.8352
lwrist -76.711
lhand -16.1756 8.69675
lfingers 7.12502
lthumb 10.0308 38.4377
rfemur -78.5643 6.37405 22.2599
rtibia 93.2362
rfoot -35.0296 -25.8076
rtoes -25.1112
lfemur -75.0895 -0.329523 -26.5659
ltibia 94.2823
lfoot -14.8946 41.0884
ltoes -17.3327
